%TF.GenerationSoftware,KiCad,Pcbnew,10.0.5*%
%TF.CreationDate,2026-08-14T17:18:27-05:00*%
%TF.ProjectId,STM32G0XJX-breakout,53544d33-3247-4305-984a-582d62726561,rev?*%
%TF.SameCoordinates,Original*%
%TF.FileFunction,Copper,L3,Inr*%
%TF.FilePolarity,Positive*%
%FSLAX46Y46*%
G04 Gerber Fmt 4.6, Leading zero omitted, Abs format (unit mm)*
G04 Created by KiCad (PCBNEW 10.0.5) date 2026-08-14 17:18:27*
%MOMM*%
%LPD*%
G01*
G04 APERTURE LIST*
%TA.AperFunction,ComponentPad*%
%ADD10R,0.985000X0.985000*%
%TD*%
%TA.AperFunction,ComponentPad*%
%ADD11C,0.985000*%
%TD*%
%TA.AperFunction,ViaPad*%
%ADD12C,0.450000*%
%TD*%
G04 APERTURE END LIST*
D10*
%TO.N,/PB7{slash}PB8{slash}PB9{slash}PC14*%
%TO.C,J1*%
X146190000Y-96190000D03*
D11*
%TO.N,+3.3V*%
X146190000Y-98730000D03*
%TO.N,GND*%
X146190000Y-101270000D03*
%TO.N,/PA0{slash}PA1{slash}PA2{slash}PF2*%
X146190000Y-103810000D03*
%TD*%
D10*
%TO.N,/PA14{slash}PA15{slash}PB5{slash}PB6*%
%TO.C,J2*%
X153810000Y-96190000D03*
D11*
%TO.N,/PA13*%
X153810000Y-98730000D03*
%TO.N,/PA10{slash}PA12*%
X153810000Y-101270000D03*
%TO.N,/PA8{slash}PA9{slash}PA11{slash}PB0{slash}PB1*%
X153810000Y-103810000D03*
%TD*%
D12*
%TO.N,GND*%
X148750000Y-100000000D03*
X153000000Y-100750000D03*
X149250000Y-101500000D03*
%TO.N,/PA14{slash}PA15{slash}PB5{slash}PB6*%
X152482124Y-101267876D03*
%TO.N,/PA10{slash}PA12*%
X149750000Y-102000000D03*
%TO.N,/PA0{slash}PA1{slash}PA2{slash}PF2*%
X148095000Y-100000000D03*
%TO.N,+3.3V*%
X151500000Y-96250000D03*
%TO.N,GND*%
X148500000Y-96250000D03*
%TD*%
%TA.AperFunction,Conductor*%
%TO.N,GND*%
G36*
X154959191Y-94719407D02*
G01*
X154995155Y-94768907D01*
X155000000Y-94799500D01*
X155000000Y-105200500D01*
X154981093Y-105258691D01*
X154931593Y-105294655D01*
X154901000Y-105299500D01*
X145099000Y-105299500D01*
X145040809Y-105280593D01*
X145004845Y-105231093D01*
X145000000Y-105200500D01*
X145000000Y-103746667D01*
X145547000Y-103746667D01*
X145547000Y-103873332D01*
X145571710Y-103997555D01*
X145571710Y-103997557D01*
X145620178Y-104114570D01*
X145620184Y-104114581D01*
X145690548Y-104219887D01*
X145780112Y-104309451D01*
X145885418Y-104379815D01*
X145885429Y-104379821D01*
X145928653Y-104397724D01*
X146002444Y-104428290D01*
X146126670Y-104453000D01*
X146126671Y-104453000D01*
X146253329Y-104453000D01*
X146253330Y-104453000D01*
X146377556Y-104428290D01*
X146494575Y-104379819D01*
X146599888Y-104309451D01*
X146689451Y-104219888D01*
X146759819Y-104114575D01*
X146808290Y-103997556D01*
X146833000Y-103873330D01*
X146833000Y-103746670D01*
X146832999Y-103746667D01*
X153167000Y-103746667D01*
X153167000Y-103873332D01*
X153191710Y-103997555D01*
X153191710Y-103997557D01*
X153240178Y-104114570D01*
X153240184Y-104114581D01*
X153310548Y-104219887D01*
X153400112Y-104309451D01*
X153505418Y-104379815D01*
X153505429Y-104379821D01*
X153548653Y-104397724D01*
X153622444Y-104428290D01*
X153746670Y-104453000D01*
X153746671Y-104453000D01*
X153873329Y-104453000D01*
X153873330Y-104453000D01*
X153997556Y-104428290D01*
X154114575Y-104379819D01*
X154219888Y-104309451D01*
X154309451Y-104219888D01*
X154379819Y-104114575D01*
X154428290Y-103997556D01*
X154453000Y-103873330D01*
X154453000Y-103746670D01*
X154428290Y-103622444D01*
X154379819Y-103505425D01*
X154379818Y-103505423D01*
X154379815Y-103505418D01*
X154309451Y-103400112D01*
X154219887Y-103310548D01*
X154114581Y-103240184D01*
X154114570Y-103240178D01*
X153997556Y-103191710D01*
X153873332Y-103167000D01*
X153873330Y-103167000D01*
X153746670Y-103167000D01*
X153746667Y-103167000D01*
X153622444Y-103191710D01*
X153622442Y-103191710D01*
X153505429Y-103240178D01*
X153505418Y-103240184D01*
X153400112Y-103310548D01*
X153310548Y-103400112D01*
X153240184Y-103505418D01*
X153240178Y-103505429D01*
X153191710Y-103622442D01*
X153191710Y-103622444D01*
X153167000Y-103746667D01*
X146832999Y-103746667D01*
X146808290Y-103622444D01*
X146759819Y-103505425D01*
X146759818Y-103505423D01*
X146759815Y-103505418D01*
X146689451Y-103400112D01*
X146599887Y-103310548D01*
X146494581Y-103240184D01*
X146494570Y-103240178D01*
X146377556Y-103191710D01*
X146253332Y-103167000D01*
X146253330Y-103167000D01*
X146126670Y-103167000D01*
X146126667Y-103167000D01*
X146002444Y-103191710D01*
X146002442Y-103191710D01*
X145885429Y-103240178D01*
X145885418Y-103240184D01*
X145780112Y-103310548D01*
X145690548Y-103400112D01*
X145620184Y-103505418D01*
X145620178Y-103505429D01*
X145571710Y-103622442D01*
X145571710Y-103622444D01*
X145547000Y-103746667D01*
X145000000Y-103746667D01*
X145000000Y-101196867D01*
X145447500Y-101196867D01*
X145447500Y-101343132D01*
X145476034Y-101486578D01*
X145476034Y-101486580D01*
X145532003Y-101621703D01*
X145583879Y-101699342D01*
X145893404Y-101389816D01*
X145894137Y-101392551D01*
X145935937Y-101464950D01*
X145995050Y-101524063D01*
X146067449Y-101565863D01*
X146070180Y-101566594D01*
X145760656Y-101876119D01*
X145838296Y-101927996D01*
X145973420Y-101983965D01*
X146116867Y-102012499D01*
X146116871Y-102012500D01*
X146263129Y-102012500D01*
X146263132Y-102012499D01*
X146406578Y-101983965D01*
X146406580Y-101983965D01*
X146487216Y-101950565D01*
X149374500Y-101950565D01*
X149374500Y-102049435D01*
X149397067Y-102133657D01*
X149400091Y-102144942D01*
X149449523Y-102230559D01*
X149449525Y-102230562D01*
X149519438Y-102300475D01*
X149519440Y-102300476D01*
X149605058Y-102349908D01*
X149605056Y-102349908D01*
X149605060Y-102349909D01*
X149605062Y-102349910D01*
X149700565Y-102375500D01*
X149700567Y-102375500D01*
X149799433Y-102375500D01*
X149799435Y-102375500D01*
X149894938Y-102349910D01*
X149894940Y-102349908D01*
X149894942Y-102349908D01*
X149920377Y-102335222D01*
X149980562Y-102300475D01*
X150050475Y-102230562D01*
X150099910Y-102144938D01*
X150125500Y-102049435D01*
X150125500Y-101950565D01*
X150099910Y-101855062D01*
X150099908Y-101855059D01*
X150099908Y-101855057D01*
X150057818Y-101782157D01*
X150050475Y-101769438D01*
X149980562Y-101699525D01*
X149980559Y-101699523D01*
X149894941Y-101650091D01*
X149894943Y-101650091D01*
X149857885Y-101640161D01*
X149799435Y-101624500D01*
X149700565Y-101624500D01*
X149642114Y-101640161D01*
X149605057Y-101650091D01*
X149519440Y-101699523D01*
X149449523Y-101769440D01*
X149400091Y-101855057D01*
X149385783Y-101908453D01*
X149374500Y-101950565D01*
X146487216Y-101950565D01*
X146541703Y-101927996D01*
X146619342Y-101876119D01*
X146309818Y-101566595D01*
X146312551Y-101565863D01*
X146384950Y-101524063D01*
X146444063Y-101464950D01*
X146485863Y-101392551D01*
X146486595Y-101389818D01*
X146796119Y-101699342D01*
X146847996Y-101621703D01*
X146903965Y-101486580D01*
X146903965Y-101486578D01*
X146932499Y-101343132D01*
X146932500Y-101343128D01*
X146932500Y-101218441D01*
X152106624Y-101218441D01*
X152106624Y-101317311D01*
X152110917Y-101333332D01*
X152132215Y-101412818D01*
X152181647Y-101498435D01*
X152181649Y-101498438D01*
X152251562Y-101568351D01*
X152251564Y-101568352D01*
X152337182Y-101617784D01*
X152337180Y-101617784D01*
X152337184Y-101617785D01*
X152337186Y-101617786D01*
X152432689Y-101643376D01*
X152432691Y-101643376D01*
X152531557Y-101643376D01*
X152531559Y-101643376D01*
X152627062Y-101617786D01*
X152627064Y-101617784D01*
X152627066Y-101617784D01*
X152652501Y-101603098D01*
X152712686Y-101568351D01*
X152782599Y-101498438D01*
X152832034Y-101412814D01*
X152857624Y-101317311D01*
X152857624Y-101218441D01*
X152854469Y-101206667D01*
X153167000Y-101206667D01*
X153167000Y-101333332D01*
X153191710Y-101457555D01*
X153191710Y-101457557D01*
X153240178Y-101574570D01*
X153240184Y-101574581D01*
X153310548Y-101679887D01*
X153400112Y-101769451D01*
X153505418Y-101839815D01*
X153505429Y-101839821D01*
X153542213Y-101855057D01*
X153622444Y-101888290D01*
X153746670Y-101913000D01*
X153746671Y-101913000D01*
X153873329Y-101913000D01*
X153873330Y-101913000D01*
X153997556Y-101888290D01*
X154114575Y-101839819D01*
X154219888Y-101769451D01*
X154309451Y-101679888D01*
X154379819Y-101574575D01*
X154428290Y-101457556D01*
X154453000Y-101333330D01*
X154453000Y-101206670D01*
X154428290Y-101082444D01*
X154409597Y-101037316D01*
X154379821Y-100965429D01*
X154379815Y-100965418D01*
X154309451Y-100860112D01*
X154219887Y-100770548D01*
X154114581Y-100700184D01*
X154114570Y-100700178D01*
X153997556Y-100651710D01*
X153873332Y-100627000D01*
X153873330Y-100627000D01*
X153746670Y-100627000D01*
X153746667Y-100627000D01*
X153622444Y-100651710D01*
X153622442Y-100651710D01*
X153505429Y-100700178D01*
X153505418Y-100700184D01*
X153400112Y-100770548D01*
X153310548Y-100860112D01*
X153240184Y-100965418D01*
X153240178Y-100965429D01*
X153191710Y-101082442D01*
X153191710Y-101082444D01*
X153167000Y-101206667D01*
X152854469Y-101206667D01*
X152832034Y-101122938D01*
X152832032Y-101122935D01*
X152832032Y-101122933D01*
X152782600Y-101037316D01*
X152782599Y-101037314D01*
X152712686Y-100967401D01*
X152712683Y-100967399D01*
X152627065Y-100917967D01*
X152627067Y-100917967D01*
X152590009Y-100908037D01*
X152531559Y-100892376D01*
X152432689Y-100892376D01*
X152374238Y-100908037D01*
X152337181Y-100917967D01*
X152251564Y-100967399D01*
X152181647Y-101037316D01*
X152132215Y-101122933D01*
X152132214Y-101122938D01*
X152106624Y-101218441D01*
X146932500Y-101218441D01*
X146932500Y-101196871D01*
X146932499Y-101196867D01*
X146903965Y-101053421D01*
X146903965Y-101053419D01*
X146847996Y-100918296D01*
X146796119Y-100840656D01*
X146486594Y-101150180D01*
X146485863Y-101147449D01*
X146444063Y-101075050D01*
X146384950Y-101015937D01*
X146312551Y-100974137D01*
X146309816Y-100973404D01*
X146619342Y-100663879D01*
X146541703Y-100612003D01*
X146406579Y-100556034D01*
X146263132Y-100527500D01*
X146116867Y-100527500D01*
X145973421Y-100556034D01*
X145973419Y-100556034D01*
X145838296Y-100612003D01*
X145760657Y-100663880D01*
X146070181Y-100973404D01*
X146067449Y-100974137D01*
X145995050Y-101015937D01*
X145935937Y-101075050D01*
X145894137Y-101147449D01*
X145893404Y-101150181D01*
X145583880Y-100840657D01*
X145532003Y-100918296D01*
X145476034Y-101053419D01*
X145476034Y-101053421D01*
X145447500Y-101196867D01*
X145000000Y-101196867D01*
X145000000Y-99950565D01*
X147719500Y-99950565D01*
X147719500Y-100049435D01*
X147742067Y-100133657D01*
X147745091Y-100144942D01*
X147794523Y-100230559D01*
X147794525Y-100230562D01*
X147864438Y-100300475D01*
X147864440Y-100300476D01*
X147950058Y-100349908D01*
X147950056Y-100349908D01*
X147950060Y-100349909D01*
X147950062Y-100349910D01*
X148045565Y-100375500D01*
X148045567Y-100375500D01*
X148144433Y-100375500D01*
X148144435Y-100375500D01*
X148239938Y-100349910D01*
X148239940Y-100349908D01*
X148239942Y-100349908D01*
X148265377Y-100335222D01*
X148325562Y-100300475D01*
X148395475Y-100230562D01*
X148444910Y-100144938D01*
X148470500Y-100049435D01*
X148470500Y-99950565D01*
X148444910Y-99855062D01*
X148444908Y-99855059D01*
X148444908Y-99855057D01*
X148395476Y-99769440D01*
X148395475Y-99769438D01*
X148325562Y-99699525D01*
X148325559Y-99699523D01*
X148239941Y-99650091D01*
X148239943Y-99650091D01*
X148202885Y-99640161D01*
X148144435Y-99624500D01*
X148045565Y-99624500D01*
X147987114Y-99640161D01*
X147950057Y-99650091D01*
X147864440Y-99699523D01*
X147794523Y-99769440D01*
X147745091Y-99855057D01*
X147745090Y-99855062D01*
X147719500Y-99950565D01*
X145000000Y-99950565D01*
X145000000Y-98666667D01*
X145547000Y-98666667D01*
X145547000Y-98793332D01*
X145571710Y-98917555D01*
X145571710Y-98917557D01*
X145620178Y-99034570D01*
X145620184Y-99034581D01*
X145690548Y-99139887D01*
X145780112Y-99229451D01*
X145885418Y-99299815D01*
X145885429Y-99299821D01*
X145928653Y-99317724D01*
X146002444Y-99348290D01*
X146126670Y-99373000D01*
X146126671Y-99373000D01*
X146253329Y-99373000D01*
X146253330Y-99373000D01*
X146377556Y-99348290D01*
X146494575Y-99299819D01*
X146599888Y-99229451D01*
X146689451Y-99139888D01*
X146759819Y-99034575D01*
X146808290Y-98917556D01*
X146833000Y-98793330D01*
X146833000Y-98666670D01*
X146832999Y-98666667D01*
X153167000Y-98666667D01*
X153167000Y-98793332D01*
X153191710Y-98917555D01*
X153191710Y-98917557D01*
X153240178Y-99034570D01*
X153240184Y-99034581D01*
X153310548Y-99139887D01*
X153400112Y-99229451D01*
X153505418Y-99299815D01*
X153505429Y-99299821D01*
X153548653Y-99317724D01*
X153622444Y-99348290D01*
X153746670Y-99373000D01*
X153746671Y-99373000D01*
X153873329Y-99373000D01*
X153873330Y-99373000D01*
X153997556Y-99348290D01*
X154114575Y-99299819D01*
X154219888Y-99229451D01*
X154309451Y-99139888D01*
X154379819Y-99034575D01*
X154428290Y-98917556D01*
X154453000Y-98793330D01*
X154453000Y-98666670D01*
X154428290Y-98542444D01*
X154379819Y-98425425D01*
X154379818Y-98425423D01*
X154379815Y-98425418D01*
X154309451Y-98320112D01*
X154219887Y-98230548D01*
X154114581Y-98160184D01*
X154114570Y-98160178D01*
X153997556Y-98111710D01*
X153873332Y-98087000D01*
X153873330Y-98087000D01*
X153746670Y-98087000D01*
X153746667Y-98087000D01*
X153622444Y-98111710D01*
X153622442Y-98111710D01*
X153505429Y-98160178D01*
X153505418Y-98160184D01*
X153400112Y-98230548D01*
X153310548Y-98320112D01*
X153240184Y-98425418D01*
X153240178Y-98425429D01*
X153191710Y-98542442D01*
X153191710Y-98542444D01*
X153167000Y-98666667D01*
X146832999Y-98666667D01*
X146808290Y-98542444D01*
X146759819Y-98425425D01*
X146759818Y-98425423D01*
X146759815Y-98425418D01*
X146689451Y-98320112D01*
X146599887Y-98230548D01*
X146494581Y-98160184D01*
X146494570Y-98160178D01*
X146377556Y-98111710D01*
X146253332Y-98087000D01*
X146253330Y-98087000D01*
X146126670Y-98087000D01*
X146126667Y-98087000D01*
X146002444Y-98111710D01*
X146002442Y-98111710D01*
X145885429Y-98160178D01*
X145885418Y-98160184D01*
X145780112Y-98230548D01*
X145690548Y-98320112D01*
X145620184Y-98425418D01*
X145620178Y-98425429D01*
X145571710Y-98542442D01*
X145571710Y-98542444D01*
X145547000Y-98666667D01*
X145000000Y-98666667D01*
X145000000Y-95682672D01*
X145547000Y-95682672D01*
X145547000Y-96697327D01*
X145555732Y-96741220D01*
X145555733Y-96741222D01*
X145588996Y-96791004D01*
X145638778Y-96824267D01*
X145649827Y-96826464D01*
X145682672Y-96832999D01*
X145682678Y-96832999D01*
X145682680Y-96833000D01*
X145682681Y-96833000D01*
X146697319Y-96833000D01*
X146697320Y-96833000D01*
X146697321Y-96832999D01*
X146697327Y-96832999D01*
X146719123Y-96828662D01*
X146741222Y-96824267D01*
X146791004Y-96791004D01*
X146824267Y-96741222D01*
X146833000Y-96697320D01*
X146833000Y-96200565D01*
X151124500Y-96200565D01*
X151124500Y-96299435D01*
X151147067Y-96383657D01*
X151150091Y-96394942D01*
X151199523Y-96480559D01*
X151199525Y-96480562D01*
X151269438Y-96550475D01*
X151269440Y-96550476D01*
X151355058Y-96599908D01*
X151355056Y-96599908D01*
X151355060Y-96599909D01*
X151355062Y-96599910D01*
X151450565Y-96625500D01*
X151450567Y-96625500D01*
X151549433Y-96625500D01*
X151549435Y-96625500D01*
X151644938Y-96599910D01*
X151644940Y-96599908D01*
X151644942Y-96599908D01*
X151670377Y-96585222D01*
X151730562Y-96550475D01*
X151800475Y-96480562D01*
X151849910Y-96394938D01*
X151875500Y-96299435D01*
X151875500Y-96200565D01*
X151849910Y-96105062D01*
X151849908Y-96105059D01*
X151849908Y-96105057D01*
X151800476Y-96019440D01*
X151800475Y-96019438D01*
X151730562Y-95949525D01*
X151730559Y-95949523D01*
X151644941Y-95900091D01*
X151644943Y-95900091D01*
X151607885Y-95890161D01*
X151549435Y-95874500D01*
X151450565Y-95874500D01*
X151392114Y-95890161D01*
X151355057Y-95900091D01*
X151269440Y-95949523D01*
X151199523Y-96019440D01*
X151150091Y-96105057D01*
X151150090Y-96105062D01*
X151124500Y-96200565D01*
X146833000Y-96200565D01*
X146833000Y-95682680D01*
X146832999Y-95682678D01*
X146832999Y-95682672D01*
X153167000Y-95682672D01*
X153167000Y-96697327D01*
X153175732Y-96741220D01*
X153175733Y-96741222D01*
X153208996Y-96791004D01*
X153258778Y-96824267D01*
X153269827Y-96826464D01*
X153302672Y-96832999D01*
X153302678Y-96832999D01*
X153302680Y-96833000D01*
X153302681Y-96833000D01*
X154317319Y-96833000D01*
X154317320Y-96833000D01*
X154317321Y-96832999D01*
X154317327Y-96832999D01*
X154339123Y-96828662D01*
X154361222Y-96824267D01*
X154411004Y-96791004D01*
X154444267Y-96741222D01*
X154453000Y-96697320D01*
X154453000Y-95682680D01*
X154452999Y-95682678D01*
X154452999Y-95682672D01*
X154444267Y-95638779D01*
X154444265Y-95638775D01*
X154411005Y-95588998D01*
X154411004Y-95588996D01*
X154410340Y-95588552D01*
X154361224Y-95555734D01*
X154361220Y-95555732D01*
X154317327Y-95547000D01*
X154317320Y-95547000D01*
X153302680Y-95547000D01*
X153302672Y-95547000D01*
X153258779Y-95555732D01*
X153258775Y-95555734D01*
X153208998Y-95588994D01*
X153208994Y-95588998D01*
X153175734Y-95638775D01*
X153175732Y-95638779D01*
X153167000Y-95682672D01*
X146832999Y-95682672D01*
X146824267Y-95638779D01*
X146824265Y-95638775D01*
X146791005Y-95588998D01*
X146791004Y-95588996D01*
X146790340Y-95588552D01*
X146741224Y-95555734D01*
X146741220Y-95555732D01*
X146697327Y-95547000D01*
X146697320Y-95547000D01*
X145682680Y-95547000D01*
X145682672Y-95547000D01*
X145638779Y-95555732D01*
X145638775Y-95555734D01*
X145588998Y-95588994D01*
X145588994Y-95588998D01*
X145555734Y-95638775D01*
X145555732Y-95638779D01*
X145547000Y-95682672D01*
X145000000Y-95682672D01*
X145000000Y-94799500D01*
X145018907Y-94741309D01*
X145068407Y-94705345D01*
X145099000Y-94700500D01*
X154901000Y-94700500D01*
X154959191Y-94719407D01*
G37*
%TD.AperFunction*%
%TD*%
M02*
