%TF.GenerationSoftware,KiCad,Pcbnew,10.0.5*%
%TF.CreationDate,2026-08-14T17:18:27-05:00*%
%TF.ProjectId,STM32G0XJX-breakout,53544d33-3247-4305-984a-582d62726561,rev?*%
%TF.SameCoordinates,Original*%
%TF.FileFunction,Copper,L4,Bot*%
%TF.FilePolarity,Positive*%
%FSLAX46Y46*%
G04 Gerber Fmt 4.6, Leading zero omitted, Abs format (unit mm)*
G04 Created by KiCad (PCBNEW 10.0.5) date 2026-08-14 17:18:27*
%MOMM*%
%LPD*%
G01*
G04 APERTURE LIST*
G04 Aperture macros list*
%AMRoundRect*
0 Rectangle with rounded corners*
0 $1 Rounding radius*
0 $2 $3 $4 $5 $6 $7 $8 $9 X,Y pos of 4 corners*
0 Add a 4 corners polygon primitive as box body*
4,1,4,$2,$3,$4,$5,$6,$7,$8,$9,$2,$3,0*
0 Add four circle primitives for the rounded corners*
1,1,$1+$1,$2,$3*
1,1,$1+$1,$4,$5*
1,1,$1+$1,$6,$7*
1,1,$1+$1,$8,$9*
0 Add four rect primitives between the rounded corners*
20,1,$1+$1,$2,$3,$4,$5,0*
20,1,$1+$1,$4,$5,$6,$7,0*
20,1,$1+$1,$6,$7,$8,$9,0*
20,1,$1+$1,$8,$9,$2,$3,0*%
G04 Aperture macros list end*
%TA.AperFunction,SMDPad,CuDef*%
%ADD10RoundRect,0.225000X0.225000X0.250000X-0.225000X0.250000X-0.225000X-0.250000X0.225000X-0.250000X0*%
%TD*%
%TA.AperFunction,ComponentPad*%
%ADD11R,0.985000X0.985000*%
%TD*%
%TA.AperFunction,ComponentPad*%
%ADD12C,0.985000*%
%TD*%
%TA.AperFunction,ViaPad*%
%ADD13C,0.450000*%
%TD*%
%TA.AperFunction,Conductor*%
%ADD14C,0.250000*%
%TD*%
G04 APERTURE END LIST*
D10*
%TO.P,C2,1*%
%TO.N,+3.3V*%
X150775000Y-96250000D03*
%TO.P,C2,2*%
%TO.N,GND*%
X149225000Y-96250000D03*
%TD*%
D11*
%TO.P,J1,1,Pin_1_1*%
%TO.N,/PB7{slash}PB8{slash}PB9{slash}PC14*%
X146190000Y-96190000D03*
D12*
%TO.P,J1,2,Pin_2_2*%
%TO.N,+3.3V*%
X146190000Y-98730000D03*
%TO.P,J1,3,Pin_3_3*%
%TO.N,GND*%
X146190000Y-101270000D03*
%TO.P,J1,4,Pin_4_4*%
%TO.N,/PA0{slash}PA1{slash}PA2{slash}PF2*%
X146190000Y-103810000D03*
%TD*%
D11*
%TO.P,J2,1,Pin_1_1*%
%TO.N,/PA14{slash}PA15{slash}PB5{slash}PB6*%
X153810000Y-96190000D03*
D12*
%TO.P,J2,2,Pin_2_2*%
%TO.N,/PA13*%
X153810000Y-98730000D03*
%TO.P,J2,3,Pin_3_3*%
%TO.N,/PA10{slash}PA12*%
X153810000Y-101270000D03*
%TO.P,J2,4,Pin_4_4*%
%TO.N,/PA8{slash}PA9{slash}PA11{slash}PB0{slash}PB1*%
X153810000Y-103810000D03*
%TD*%
D13*
%TO.N,GND*%
X148750000Y-100000000D03*
X153000000Y-100750000D03*
X149250000Y-101500000D03*
%TO.N,/PA14{slash}PA15{slash}PB5{slash}PB6*%
X152482124Y-101267876D03*
%TO.N,/PA10{slash}PA12*%
X149750000Y-102000000D03*
%TO.N,/PA0{slash}PA1{slash}PA2{slash}PF2*%
X148095000Y-100000000D03*
%TO.N,+3.3V*%
X151500000Y-96250000D03*
%TO.N,GND*%
X148500000Y-96250000D03*
%TD*%
%TO.N,+3.3V*%
D14*
X146190000Y-98730000D02*
X149645000Y-98730000D01*
%TO.N,/PA14{slash}PA15{slash}PB5{slash}PB6*%
X152482124Y-101267876D02*
X152482124Y-101142876D01*
X152482124Y-101142876D02*
X152491062Y-101133938D01*
X152491062Y-101133938D02*
X152491062Y-101008938D01*
X152491062Y-101008938D02*
X152500000Y-101000000D01*
X152500000Y-101000000D02*
X152500000Y-97500000D01*
X152500000Y-97500000D02*
X153810000Y-96190000D01*
%TO.N,/PA10{slash}PA12*%
X153810000Y-101270000D02*
X153080000Y-102000000D01*
X153080000Y-102000000D02*
X149750000Y-102000000D01*
%TO.N,/PA0{slash}PA1{slash}PA2{slash}PF2*%
X148095000Y-100000000D02*
X148095000Y-101905000D01*
X148095000Y-101905000D02*
X146190000Y-103810000D01*
%TO.N,+3.3V*%
X149645000Y-98730000D02*
X150775000Y-97600000D01*
X150775000Y-97600000D02*
X150775000Y-96250000D01*
X150775000Y-96250000D02*
X151500000Y-96250000D01*
%TO.N,GND*%
X149225000Y-96250000D02*
X148500000Y-96250000D01*
%TD*%
M02*
